0 
0 Name: Nuevo Modelo.ldr
0 Author: 
1 10 70 -40 -90 0 1 0 -1 0 0 0 0 1 geekservo1.dat
1 15 70 -72 -70 0 0 -1 0 1 0 1 0 0 3738.dat
1 8 72 -58 -120 0 -1 0 1 0 0 0 0 1 4459.dat
1 8 72 -58 -50 0 -1 0 1 0 0 0 0 1 4459.dat
1 10 190 -40 -90 0 -1 0 1 0 0 0 0 1 geekservo1.dat
1 15 190 -72 -70 0 0 -1 0 1 0 1 0 0 3738.dat
1 8 192 -58 -120 0 -1 0 1 0 0 0 0 1 4459.dat
1 8 192 -58 -50 0 -1 0 1 0 0 0 0 1 4459.dat
0 STEP
1 15 130 -80 -130 -1 0 0 0 1 0 0 0 -1 3738.dat
1 15 130 -80 -50 -1 0 0 0 1 0 0 0 -1 3738.dat
1 15 150 -80 10 0 0 -1 0 1 0 1 0 0 3738.dat
1 15 110 -80 10 0 0 -1 0 1 0 1 0 0 3738.dat
1 14 80 -104 -140 -1 0 0 0 1 0 0 0 -1 3005.dat
1 14 180 -104 -140 -1 0 0 0 1 0 0 0 -1 3005.dat
1 15 130 -112 -150 -1 0 0 0 1 0 0 0 -1 3738.dat
0 STEP
1 14 100 -104 10 -1 0 0 0 1 0 0 0 -1 41762.dat
1 14 160 -104 10 -1 0 0 0 1 0 0 0 -1 41762.dat
1 4 100 -104 -30 1 0 0 0 1 0 0 0 1 41762.dat
1 4 160 -104 -30 1 0 0 0 1 0 0 0 1 41762.dat
1 4 130 -104 -10 0 0 -1 0 1 0 1 0 0 3001.dat
1 14 130 -104 -70 1 0 0 0 1 0 0 0 1 3003.dat
1 14 130 -104 40 -1 0 0 0 1 0 0 0 -1 3004.dat
0 STEP
1 4 130 -104 -100 1 0 0 0 1 0 0 0 1 63341.dat
1 14 130 -104 60 -1 0 0 0 1 0 0 0 -1 3298.dat
1 14 110 -80 100 -1 0 0 0 1 0 0 0 -1 6227.dat
1 14 150 -80 100 -1 0 0 0 1 0 0 0 -1 6227.dat
1 4 100 -72 70 0 0 -1 0 1 0 1 0 0 3700.dat
1 4 160 -72 70 0 0 -1 0 1 0 1 0 0 3700.dat
0 STEP
1 10 80 -64 70 0 0 1 0 -1 0 1 0 0 4185b.dat
1 0 80 -64 70 0 0 1 0 1 0 -1 0 0 2815.dat
1 0 130 -64 70 1 0 0 0 1 0 0 0 1 3706.dat
1 10 180 -64 70 0 0 1 0 -1 0 1 0 0 4185b.dat
1 0 180 -64 70 0 0 1 0 1 0 -1 0 0 2815.dat
1 0 10 -40 -80 0 0 1 0 1 0 -1 0 0 92402.dat
1 7 10 -40 -80 0 0 1 0 1 0 -1 0 0 55982.dat
1 0 250 -40 -80 0 0 -1 0 1 0 1 0 0 92402.dat
1 7 250 -40 -80 0 0 -1 0 1 0 1 0 0 55982.dat
0 STEP
1 15 140 -128 -60 -1 0 0 0 1 0 0 0 -1 3005pe4.dat
1 15 120 -128 -60 -1 0 0 0 1 0 0 0 -1 3005pe4.dat
1 8 160 -128 -70 0 0 -1 0 1 0 1 0 0 32064a.dat
1 8 100 -128 -70 0 0 -1 0 1 0 1 0 0 32064a.dat
1 8 130 -128 -80 -1 0 0 0 1 0 0 0 -1 32064a.dat
1 2 130 -136 -70 -1 0 0 0 1 0 0 0 -1 3020.dat
