0 
0 Name: Nuevo Modelo.ldr
0 Author: 
1 8 100 -24 -20 1 0 0 0 1 0 0 0 1 4204.dat
1 14 0 -48 -90 1 0 0 0 1 0 0 0 1 3009.dat
1 4 0 -48 -40 1 0 0 0 1 0 0 0 1 2456.dat
1 4 0 -72 -40 1 0 0 0 1 0 0 0 1 2456.dat
1 15 -50 -72 -90 1 0 0 0 1 0 0 0 1 3005.dat
1 15 50 -72 -90 1 0 0 0 1 0 0 0 1 3005.dat
0 STEP
1 15 -50 -80 -60 0 0 1 0 1 0 -1 0 0 3710.dat
1 15 50 -80 -60 0 0 1 0 1 0 -1 0 0 3710.dat
1 8 50 -104 -80 0 0 1 0 1 0 -1 0 0 32064a.dat
1 4 50 -128 -80 0 0 1 0 1 0 -1 0 0 3700.dat
1 4 50 -152 -80 0 0 1 0 1 0 -1 0 0 3700.dat
0 STEP
1 4 240 -48 -30 -1 0 0 0 1 0 0 0 -1 3700.dat
1 4 240 -48 -90 -1 0 0 0 1 0 0 0 -1 3700.dat
1 0 240 -40 -40 0 0 1 0 1 0 -1 0 0 3673.dat
1 0 240 -40 -80 0 0 1 0 1 0 -1 0 0 3673.dat
1 7 240 -78 -60 0 1 0 0 0 -1 -1 0 0 geekservo1.dat
0 STEP
1 0 190 -88 -60 0 0 1 0 1 0 -1 0 0 24505.dat
1 0 180 -96 -50 -1 0 0 0 1 0 0 0 -1 3673.dat
1 0 180 -96 -70 -1 0 0 0 1 0 0 0 -1 3673.dat
1 4 170 -104 -190 0 0 1 0 1 0 -1 0 0 3703.dat
