0
0 Name: Nuevo Modelo.ldr
0 Author: LPub3D
0 !LPUB PLI MODEL_SCALE GLOBAL 0.9000
1 7 90 -24 -40 1 0 0 0 1 0 0 0 1 4204.dat
1 4 -40 -64 -40 0 0 1 0 1 0 -1 0 0 geekservo1.dat
1 14 50 -48 -40 1 0 0 0 1 0 0 0 1 6223.dat
1 14 50 -80 -40 1 0 0 0 1 0 0 0 1 6223.dat
1 15 70 -56 -40 1 0 0 0 1 0 0 0 1 32001.dat
1 15 70 -88 -40 1 0 0 0 1 0 0 0 1 32001.dat
0 STEP
1 8 -30 -114 -50 1 0 0 0 0 -1 0 1 0 32064a.dat
1 10 90 -132 -42 1 0 0 0 0 -1 0 1 0 4185b.dat
1 10 90 -224 -40 1 0 0 0 1 0 0 0 1 6116.dat
1 8 -30 -126 -40 0 1 0 1 0 0 0 0 -1 32073.dat
1 10 -30 -176 -40 1 0 0 0 1 0 0 0 1 6116.dat
1 8 90 -122 -40 0 -1 0 1 0 0 0 0 1 3737.dat
1 10 -30 -132 -42 1 0 0 0 0 -1 0 1 0 4185b.dat
0 STEP
0 !LPUB PLI CONSTRAIN LOCAL HEIGHT 1.6600
1 4 90 -248 -40 0 0 1 0 1 0 -1 0 0 6223.dat
1 14 -30 -200 -40 0 0 1 0 1 0 -1 0 0 6223.dat
1 14 -30 -224 -30 -1 0 -0 0 1 0 0 0 -1 3660.dat
1 4 90 -272 -30 -1 0 0 0 1 0 0 0 -1 3660.dat
0 STEP
0 !LPUB PLI CONSTRAIN LOCAL HEIGHT 1.8133
1 4 50 -272 -50 -1 0 0 0 1 0 0 0 -1 3066.dat
1 4 130 -272 -50 -1 0 0 0 1 0 0 0 -1 3066.dat
1 14 -70 -224 -50 1 0 0 0 1 0 0 0 1 3066.dat
1 14 10 -224 -50 1 0 0 0 1 0 0 0 1 3066.dat
0 STEP
1 14 90 -296 -50 1 0 0 0 1 0 0 0 1 6227.dat
1 4 -30 -248 -50 1 0 0 0 1 0 0 0 1 63341.dat
1 15 80 -320 -50 1 0 0 0 1 0 0 0 1 3005pe4.dat
1 15 -20 -272 -50 1 0 0 0 1 0 0 0 1 3005pe4.dat
1 15 -40 -272 -50 1 0 0 0 1 0 0 0 1 3005pe4.dat
1 15 100 -320 -50 1 0 0 0 1 0 0 0 1 3005pe4.dat
