0 
0 Name: Nuevo modelo.ldr
0 Author: 
1 8 60 -24 -10 1 0 0 0 1 0 0 0 1 4204.dat
1 14 -90 -48 -30 0 0 1 0 1 0 -1 0 0 3009.dat
1 14 -50 -48 -30 0 0 1 0 1 0 -1 0 0 3009.dat
1 14 -90 -72 -30 0 0 1 0 1 0 -1 0 0 3009.dat
0 STEP
1 14 -50 -72 -80 0 0 1 0 1 0 -1 0 0 3005.dat
1 14 -50 -72 20 0 0 1 0 1 0 -1 0 0 3005.dat
1 15 -50 -80 -80 0 0 -1 0 1 0 1 0 0 77844.dat
1 15 -50 -80 20 -1 0 0 0 1 0 0 0 -1 77844.dat
0 STEP
1 15 20 -48 50 1 0 0 0 1 0 0 0 1 3001.dat
1 15 20 -72 50 1 0 0 0 1 0 0 0 1 3001.dat
1 15 20 -96 50 1 0 0 0 1 0 0 0 1 3001.dat
1 15 20 -120 50 1 0 0 0 1 0 0 0 1 3001.dat
1 15 20 -144 50 1 0 0 0 1 0 0 0 1 3001.dat
0 STEP
1 27 100 -48 50 1 0 0 0 1 0 0 0 1 3001.dat
1 27 100 -72 50 1 0 0 0 1 0 0 0 1 3001.dat
1 27 100 -96 50 1 0 0 0 1 0 0 0 1 3001.dat
1 27 100 -120 50 1 0 0 0 1 0 0 0 1 3001.dat
1 27 100 -144 50 1 0 0 0 1 0 0 0 1 3001.dat
0 STEP
1 15 160 -48 50 1 0 0 0 1 0 0 0 1 3003.dat
1 15 160 -120 50 1 0 0 0 1 0 0 0 1 3003.dat
1 15 160 -72 50 1 0 0 0 1 0 0 0 1 3003.dat
1 15 160 -144 50 1 0 0 0 1 0 0 0 1 3003.dat
1 15 160 -96 50 1 0 0 0 1 0 0 0 1 3003.dat
0 STEP
1 15 140 -168 50 1 0 0 0 1 0 0 0 1 3001.dat
1 15 40 -168 50 1 0 0 0 1 0 0 0 1 44237.dat
0 STEP
1 4 0 -192 30 0 0 1 0 1 0 -1 0 0 3001.dat
1 4 40 -192 30 0 0 1 0 1 0 -1 0 0 3001.dat
1 4 80 -192 30 0 0 1 0 1 0 -1 0 0 3001.dat
1 4 120 -192 30 0 0 1 0 1 0 -1 0 0 3001.dat
1 4 160 -192 30 0 0 1 0 1 0 -1 0 0 3001.dat
0 STEP
1 4 140 -216 -10 1 0 0 0 1 0 0 0 1 3001.dat
1 4 40 -216 -10 1 0 0 0 1 0 0 0 1 2456.dat
1 4 80 -216 70 1 0 0 0 1 0 0 0 1 2456.dat
0 STEP
1 4 20 -192 -30 1 0 0 0 1 0 0 0 1 3001.dat
1 4 120 -192 -30 1 0 0 0 1 0 0 0 1 2456.dat
0 STEP
1 4 120 -240 50 1 0 0 0 1 0 0 0 1 2456.dat
1 4 20 -240 50 1 0 0 0 1 0 0 0 1 3001.dat
0 STEP
0 !LEOCAD PIECE PIVOT  0 -144 0 1 0 0 0 1 0 0 0 1
1 15 100 -115 -12 1 0 0 0 0 -1 0 1 0 60479.dat
1 8 200 -116 -4 -1 0 0 0 0 1 0 1 0 32064c.dat
1 7 200 -64 20 -1 0 0 0 1 0 0 0 -1 geekservo1.dat
