0
0 Name: Nuevo Modelo.ldr
0 Author: LPub3D
0 !LPUB PLI CONSTRAIN LOCAL HEIGHT 2.5667
1 7 40 -24 -30 1 0 0 0 1 0 0 0 1 4204.dat
1 14 0 -48 -70 0 0 1 0 1 0 -1 0 0 3001.dat
1 14 80 -48 -70 0 0 1 0 1 0 -1 0 0 3001.dat
1 14 80 -72 -50 0 0 1 0 1 0 -1 0 0 3003.dat
1 14 0 -72 -50 0 0 1 0 1 0 -1 0 0 3003.dat
0 STEP
0 !LPUB ASSEM PLACEMENT LOCAL CENTER PAGE INSIDE OFFSET -0.0032 -0.1252
0 !LPUB PLI CONSTRAIN LOCAL HEIGHT 1.5067
1 4 40 -96 -50 1 0 0 0 1 0 0 0 1 2456.dat
1 4 40 -120 -50 1 0 0 0 1 0 0 0 1 2456.dat
1 14 40 -144 -60 1 0 0 0 1 0 0 0 1 3009.dat
0 STEP
0 !LPUB ASSEM PLACEMENT LOCAL CENTER PAGE INSIDE OFFSET 0.0198 -0.1528
1 4 40 -144 -40 1 0 0 0 1 0 0 0 1 3894.dat
1 68 80 -136 -30 0 0 -1 0 1 0 1 0 0 6562.dat
1 68 20 -136 -30 0 0 -1 0 1 0 1 0 0 6562.dat
0 STEP
0 !LPUB ASSEM CAMERA_ANGLES LOCAL 23.0  145.0
0 !LPUB ASSEM PLACEMENT LOCAL CENTER PAGE INSIDE OFFSET 0.0517 -0.2959
1 2 20 -32 30 1 0 0 0 1 0 0 0 1 3020.dat
1 4 50 -56 30 0 0 -1 0 1 0 1 0 0 3700.dat
1 4 -10 -56 30 0 0 -1 0 1 0 1 0 0 3700.dat
0 STEP
0 !LPUB PLI CONSTRAIN LOCAL HEIGHT 1.2933
0 !LPUB ASSEM PLACEMENT LOCAL CENTER PAGE INSIDE OFFSET 0.0223 -0.0486
0 !LPUB ASSEM MODEL_SCALE LOCAL 0.8900
0 !LPUB ASSEM CAMERA_ANGLES LOCAL HOME   23.0  145.0
1 7 20 -96 -10 1 0 0 0 1 0 0 0 1 10928.dat
1 7 20 -82 30 1 0 0 0 0 -1 0 1 0 geekservo1.dat
1 0 0 -48 30 1 0 0 0 1 0 0 0 1 2780.dat
1 0 40 -48 30 1 0 0 0 1 0 0 0 1 2780.dat
0 STEP
0 !LPUB ASSEM PLACEMENT LOCAL CENTER PAGE INSIDE OFFSET 0.0248 -0.0715
0 !LPUB ASSEM CAMERA_ANGLES LOCAL 23.0  145.0
1 0 20 -136 -20 0.866025 0.5 0 -0.5 0.866025 0 0 0 1 3648a.dat
1 15 -33.6603 -115.6603 -10 0.866025 0 -0.5 -0.5 0 -0.866025 0 1 0 3460.dat
1 15 -82.4871 -79.3205 -18 0.866026 0 -0.5 -0.5 0 -0.866026 0 1 0 32001.dat
0 STEP
0 !LPUB ASSEM CAMERA_ANGLES LOCAL 23.0  145.0
1 0 80 -136 -20 0.866025 -0.5 0 0.5 0.866025 0 0 0 1 3648a.dat
1 15 119.641 -124.6603 -12 0.866025 0 0.5 0.5 0 -0.866025 0 1 0 3666py0.dat
1 15 172.3205 -87.9808 -18 0.866025 0 0.5 0.5 0 -0.866025 0 1 0 32001.dat
0 STEP
1 14 40 -168 -70 0 0 1 0 1 0 -1 0 0 3003.dat
1 15 40 -192 -50 1 0 0 0 1 0 0 0 1 3001.dat
1 4 40 -264 -60 1 0 0 0 1 0 0 0 1 3700.dat
1 14 40 -240 -50 0 0 1 0 1 0 -1 0 0 3003.dat
1 4 40 -216 -50 1 0 0 0 1 0 0 0 1 3001.dat
1 15 70 -240 -60 1 0 0 0 1 0 0 0 1 3005pe4.dat
1 15 10 -240 -60 1 0 0 0 1 0 0 0 1 3005pe4.dat
0 STEP
1 14 40 -216 -80 1 0 0 0 1 0 0 0 1 3298.dat
1 14 40 -192 -80 1 0 0 0 1 0 0 0 1 3747a.dat
