0 
0 Name: Nuevo Modelo.ldr
0 Author: 
1 2 200 -8 -20 1 0 0 0 1 0 0 0 1 u8200.dat
1 8 80 0 -20 1 0 0 0 1 0 0 0 1 92438.dat
1 7 0 -8 -70 1 0 0 0 1 0 0 0 1 4162.dat
1 7 160 -8 -70 1 0 0 0 1 0 0 0 1 4162.dat
0 STEP
1 15 180 -24 -50 1 0 0 0 1 0 0 0 1 3009.dat
1 15 180 -24 -90 1 0 0 0 1 0 0 0 1 3009.dat
1 4 230 -32 -20 0 0 -1 0 1 0 1 0 0 3700.dat
1 4 170 -32 -20 0 0 -1 0 1 0 1 0 0 3700.dat
1 0 180 -24 -20 1 0 0 0 1 0 0 0 1 4459.dat
1 0 220 -24 -20 1 0 0 0 1 0 0 0 1 4459.dat
1 7 200 -60 -22 -1 0 0 0 0 1 0 1 0 geekservo1.dat
0 STEP
1 15 100 -16 -70 1 0 0 0 1 0 0 0 1 3460.dat
1 15 180 -24 -70 1 0 0 0 1 0 0 0 1 3743.dat
1 15 100 -24 -70 1 0 0 0 1 0 0 0 1 3743.dat
0 STEP
1 15 -20 -16 -70 1 0 0 0 1 0 0 0 1 3710.dat
1 0 0 -40 -70 1 0 0 0 1 0 0 0 1 3009.dat
1 15 0 -64 -70 1 0 0 0 1 0 0 0 1 3009.dat
1 0 0 -88 -70 1 0 0 0 1 0 0 0 1 3009.dat
1 15 0 -112 -70 1 0 0 0 1 0 0 0 1 3009.dat
1 0 0 -136 -70 1 0 0 0 1 0 0 0 1 3009.dat
0 STEP
1 8 200 -48 -70 0 1 0 -1 0 0 0 0 1 24505.dat
0 STEP
1 15 -60 -24 0 0 0 1 0 1 0 -1 0 0 44237.dat
1 15 60 -24 0 0 0 1 0 1 0 -1 0 0 44237.dat
1 0 -60 -48 0 0 0 1 0 1 0 -1 0 0 44237.dat
1 0 60 -48 0 0 0 1 0 1 0 -1 0 0 44237.dat
1 15 -60 -72 0 0 0 1 0 1 0 -1 0 0 44237.dat
1 15 60 -72 0 0 0 1 0 1 0 -1 0 0 44237.dat
1 0 -60 -96 0 0 0 1 0 1 0 -1 0 0 44237.dat
1 0 60 -96 0 0 0 1 0 1 0 -1 0 0 44237.dat
1 15 60 -120 0 0 0 1 0 1 0 -1 0 0 44237.dat
1 15 -60 -120 0 0 0 1 0 1 0 -1 0 0 44237.dat
0 STEP
1 15 0 -24 40 1 0 0 0 1 0 0 0 1 3001.dat
1 0 0 -48 40 1 0 0 0 1 0 0 0 1 3001.dat
1 15 0 -72 40 1 0 0 0 1 0 0 0 1 3001.dat
1 0 0 -96 40 1 0 0 0 1 0 0 0 1 3001.dat
1 15 0 -120 40 1 0 0 0 1 0 0 0 1 3001.dat
1 0 -40 -144 0 1 0 0 0 1 0 0 0 1 3001.dat
1 0 -40 -144 -40 1 0 0 0 1 0 0 0 1 3001.dat
1 0 40 -144 0 1 0 0 0 1 0 0 0 1 3001.dat
1 0 40 -144 -40 1 0 0 0 1 0 0 0 1 3001.dat
