0
0 Name: Nuevo Modelo.ldr
0 Author: LPub3D
0 !LPUB PLI MODEL_SCALE GLOBAL 0.8500
1 7 70 -24 -20 1 0 0 0 1 0 0 0 1 4204.dat
1 7 40 -64 -20 0 0 1 0 1 0 -1 0 0 geekservo1.dat
1 10 50 -128 -20 0 0 1 0 1 0 -1 0 0 6116.dat
1 15 50 -136 0 1 0 0 0 1 0 0 0 1 3738.dat
1 15 50 -136 -40 1 0 0 0 1 0 0 0 1 3738.dat
0 STEP
1 14 -20 -152 -20 0 0 1 0 1 0 -1 0 0 3010.dat
1 15 190 -128 -20 1 0 0 0 1 0 0 0 1 3738.dat
1 4 100 -152 -20 0 0 -1 0 1 0 1 0 0 6227.dat
1 14 260 -152 -20 0 0 1 0 1 0 -1 0 0 6227.dat
1 4 10 -152 10 1 0 0 0 1 0 0 0 1 3700.dat
1 4 90 -152 10 1 0 0 0 1 0 0 0 1 3700.dat
1 4 50 -152 -50 1 0 0 0 1 0 0 0 1 3894.dat
0 STEP
0 !LPUB PLI CONSTRAIN LOCAL HEIGHT 1.8667
1 4 40 -168 -20 0 0 1 0 1 0 -1 0 0 geekservo1.dat
1 14 90 -176 -50 0 0 1 0 1 0 -1 0 0 41762.dat
1 14 90 -176 10 0 0 1 0 1 0 -1 0 0 41762.dat
0 STEP
1 14 50 -128 10 1 0 0 0 1 0 0 0 1 3009.dat
1 14 50 -128 -50 1 0 0 0 1 0 0 0 1 3009.dat
1 14 50 -152 -50 1 0 0 0 1 0 0 0 1 3009.dat
0 !LEOCAD PIECE PIVOT  20 0 0 1 0 0 0 1 0 0 0 1
1 14 -20 -128 -50 0 0 1 0 1 0 -1 0 0 4287a.dat
0 !LEOCAD PIECE PIVOT  20 0 0 1 0 0 0 1 0 0 0 1
1 14 -20 -128 10 0 0 1 0 1 0 -1 0 0 4287a.dat
1 4 120 -128 10 0 0 -1 0 1 0 1 0 0 3665a.dat
1 4 120 -128 -50 0 0 -1 0 1 0 1 0 0 3665a.dat
0 STEP
1 10 50 -232 -20 0 0 1 0 1 0 -1 0 0 6116.dat
1 7 40 -240 -99.9999 0 0 1 0 1 0 -1 0 0 4162.dat
1 7 129.9999 -240 -30 1 0 0 0 1 0 0 0 1 4162.dat
1 7 60 -240 59.9999 0 0 1 0 1 0 -1 0 0 4162.dat
1 7 -29.9999 -240 -10 1 0 0 0 1 0 0 0 1 4162.dat
